PathFileType	4	(X/Y/Z)	C:/Users/beibeiliu/ov580/test_trc/User3\sequence.27_training_dense_right.trc
DataRate	CameraRate	NumFrames	NumMarkers	Units	OrigDataRate	OrigDataStartFrame	OrigNumFrames
120	120	8	19	mm	120	31	91
Frame#	Time	ThumbCMC			ThumbMCP			ThumbIP			ThumbTip			IndexMCP			IndexPIP			IndexTip			MiddleMCP			MiddlePIP			MiddleTip			RingMCP			RingPIP			RingTip			PinkyMCP			PinkyPIP			PinkyTip			BackHand1			BackHand2			BackHand3	
		X0	Y0	Z0	X1	Y1	Z1	X2	Y2	Z2	X3	Y3	Z3	X4	Y4	Z4	X5	Y5	Z5	X6	Y6	Z6	X7	Y7	Z7	X8	Y8	Z8	X9	Y9	Z9	X10	Y10	Z10	X11	Y11	Z11	X12	Y12	Z12	X13	Y13	Z13	X14	Y14	Z14	X15	Y15	Z15	X16	Y16	Z16	X17	Y17	Z17	X18	Y18	Z18	
30	0.25	109.02	13.1117	20.841	93.5507	-4.12311	-4.20345	88.5607	-17.6419	-29.3658	102.731	-27.3418	-49.0942	105.387	40.4129	-48.8566	95.77	28.5926	-76.956	87.934	0.669112	-81.9794	133.4	42.7006	-58.8563	123.134	30.1318	-88.8018	115.476	-7.0646	-84.8979	153.246	29.9053	-57.4114	143.737	14.5787	-82.7989	135.97	-18.9388	-72.1176	169.893	13.1783	-46.5467	165.006	0.525541	-70.3569	154.636	-23.5994	-73.8889	164.34	32.7911	-5.61099	170.804	31.4447	21.8405	135.138	41.104	15.6147	
31	0.258333	110.543	13.3791	19.781	95.7935	-5.4074	-9.74707	92.1931	-18.5279	-33.8806	109.29	-29.8808	-54.8458	113.014	42.9307	-49.1061	96.8467	33.724	-78.9584	91.5246	2.80294	-82.7337	137.239	45.84	-60.3983	128.315	33.4197	-89.3062	115.273	-5.68798	-82.0359	151.753	25.6715	-60.6588	144.191	3.37635	-79.6182	132.422	-19.1704	-61.3919	170.564	8.91326	-48.7288	160.339	-6.87	-67.8081	144.126	-29.8554	-59.7103	163.479	33.1094	-7.2635	170.428	33.1451	23.8205	139.092	40.6753	12.7764	
32	0.266667	108.174	12.7684	20.9238	95.3597	-7.74783	-11.5492	91.4289	-21.7514	-38.2378	110.317	-32.6247	-56.9442	114.474	44.6274	-48.4578	96.6102	38.2218	-80.4142	90.3005	12.0478	-87.2534	138.305	42.2907	-58.5765	126.859	29.3417	-89.707	121.402	-7.95321	-77.9798	152.879	20.5671	-60.0174	142.623	-3.42506	-76.533	135.673	-22.8108	-48.0579	169.2	7.62237	-47.8888	161.718	-14.2803	-65.832	143.243	-32.9771	-47.5915	167.589	33.2544	-6.77055	173.877	29.3571	20.7113	139.046	41.0482	8.93244	
33	0.275	109.516	10.9411	18.2527	95.0126	-10.0538	-6.65556	90.6937	-25.7287	-33.4279	103.142	-37.4135	-58.3242	111.738	45.9743	-51.7829	101.259	43.3016	-80.2744	94.7224	18.0935	-96.202	141.058	35.8508	-61.2371	128.727	20.1164	-90.0859	120.112	-13.2829	-72.3754	153.261	13.8662	-63.5634	144.307	-12.1539	-72.704	139.005	-26.334	-44.0913	170.125	5.16783	-50.8242	161.412	-16.783	-65.1798	145.589	-38.4324	-44.8153	166.445	34.4149	-7.3174	170.408	31.011	19.2903	134.718	39.9774	12.333	
34	0.283333	110.924	10.9975	15.5493	94.6732	-9.76821	-9.81534	92.2195	-23.6374	-31.4302	96.3567	-37.9648	-57.4641	117.956	43.0895	-52.1299	101.486	43.6978	-83.3308	94.8146	23.9149	-99.9707	134.087	33.2829	-66.5191	126.176	11.7507	-87.7923	121.248	-19.5929	-60.8666	150.728	12.7169	-61.4129	143.782	-13.6021	-70.977	133.766	-26.9514	-38.2553	170.326	4.90172	-50.48	162.176	-16.8598	-65.3533	145.537	-35.3261	-49.5846	167.716	30.5284	-6.57047	170.885	29.1495	22.2837	136.08	39.6679	8.71176	
35	0.291667	111.844	11.8704	20.261	95.0747	-7.4098	-10.2768	87.7357	-21.9211	-32.9181	97.6116	-32.7794	-54.3599	113.37	45.9686	-52.935	106.772	41.3705	-80.4006	93.4994	19.5178	-97.0728	134.218	30.5971	-67.7203	124.257	4.9183	-84.7284	123.234	-21.7899	-56.2764	153.503	13.7809	-60.018	139.378	-13.7799	-70.3789	136.087	-27.9279	-38.2202	169.885	8.186	-52.0601	163.194	-9.42173	-66.7194	147.345	-32.928	-53.2464	164.674	34.9027	-6.23566	172.045	30.3797	24.7969	139.264	40.727	10.5717	
36	0.3	111.41	13.0579	18.4324	96.7091	-4.90457	-5.31832	89.0353	-17.0017	-36.9987	98.2366	-28.0414	-56.1411	115.13	42.807	-52.5086	99.9091	34.0151	-79.6099	95.6818	4.34615	-85.5644	128.791	31.1969	-64.804	121.801	5.63259	-81.0878	118.659	-20.9604	-48.7092	150.726	18.8837	-58.9283	140.185	-9.19256	-71.5425	134.336	-24.0696	-42.8239	172.216	10.3004	-47.7693	161.42	-10.7101	-69.0498	147.672	-28.7082	-58.9837	163.948	33.6394	-5.48403	170.072	32.8198	20.5122	138.354	40.619	15.122	
37	0.308333	113.135	12.8107	22.7839	93.674	-1.49002	-5.21135	88.5184	-11.7936	-38.5376	103.296	-21.396	-57.7686	113.21	40.3612	-51.325	101.602	24.6317	-77.1235	93.1071	-6.52616	-64.8889	130.304	33.0875	-64.1505	121.972	5.77497	-79.3103	122.191	-16.4757	-45.7543	150.794	24.0253	-58.9467	138.669	-4.05435	-72.7426	132.053	-19.2693	-46.599	170.883	12.714	-50.806	158.498	-7.11376	-68.2704	143.449	-26.0241	-51.9231	166.249	35.9055	-3.93131	174.399	32.4716	20.3003	137.746	42.1429	11.1195	
